<?xml version="1.0" encoding="utf-8"?>
<!-- Generator: Adobe Illustrator 15.0.0, SVG Export Plug-In . SVG Version: 6.00 Build 0)  -->
<!DOCTYPE svg PUBLIC "-//W3C//DTD SVG 1.0//EN" "http://www.w3.org/TR/2001/REC-SVG-20010904/DTD/svg10.dtd">
<svg version="1.0" id="Layer_1" xmlns="http://www.w3.org/2000/svg" xmlns:xlink="http://www.w3.org/1999/xlink" x="0px" y="0px"
	 width="48px" height="48px" viewBox="0 0 48 48" enable-background="new 0 0 48 48" xml:space="preserve">
<g>
	<path fill-rule="evenodd" clip-rule="evenodd" fill="#006ED4" d="M40.883,34.978c-0.074,0-0.146-0.009-0.219-0.011l0.007,0.014
		H10.543l0.009-0.008c-2.891-0.037-5.225-2.386-5.225-5.285c0-2.923,2.369-5.292,5.292-5.292c0.065,0,0.127,0.018,0.191,0.02
		c0.771-3.102,3.567-5.403,6.908-5.403c0.217,0,0.43,0.014,0.642,0.032c1.445-4.182,5.407-7.189,10.081-7.189
		c5.385,0,9.825,3.99,10.558,9.173c0.604-0.167,1.227-0.284,1.884-0.284c3.931,0,7.117,3.187,7.117,7.117
		S44.813,34.978,40.883,34.978z M40.913,23.678c-2.071,0-3.772,1.525-4.076,3.512l-1.714-0.792c0.659-1.139,1.043-2.456,1.043-3.866
		c0-4.271-3.462-7.732-7.732-7.732s-7.732,3.462-7.732,7.732c0,0.235,0.015,0.468,0.035,0.698c-0.764-0.793-1.83-1.291-3.019-1.291
		c-2.317,0-4.196,1.878-4.196,4.195c0,0.854,0.259,1.645,0.695,2.308l-1.375,0.688c-0.234-1.022-1.146-1.786-2.239-1.786
		c-1.271,0-2.303,1.03-2.303,2.302s1.031,2.303,2.303,2.303c0.134,0,0.263-0.018,0.39-0.04h29.435c0.161,0.02,0.319,0.05,0.486,0.05
		c2.286,0,4.139-1.854,4.139-4.14S43.199,23.678,40.913,23.678z M22.747,40.614l0.933-0.933l1.989,1.99l0.729-2.719l1.273,0.342
		l-0.729,2.718l2.719-0.729l0.341,1.274l-2.718,0.729l1.989,1.989l-0.932,0.933l-1.99-1.99l-0.729,2.719l-1.273-0.342l0.729-2.718
		l-2.719,0.729l-0.341-1.274l2.718-0.728L22.747,40.614z"/>
</g>
<g>
	<path fill-rule="evenodd" clip-rule="evenodd" fill="#004381" d="M20.189,13.159c-1.523,1.197-2.743,2.755-3.554,4.538
		c-3.059,0.11-5.707,1.81-7.146,4.303c-1.591-0.057-3.191-0.459-4.68-1.287c-1.622-0.904-2.904-2.18-3.81-3.657
		c0.477,0.404,0.997,0.771,1.564,1.087c4.66,2.595,10.542,0.921,13.138-3.739c2.539-4.56,0.983-10.279-3.449-12.956
		c0.925,0.216,1.836,0.554,2.707,1.039C18.869,4.663,20.82,8.98,20.189,13.159z"/>
</g>
</svg>
