<svg enable-background="new 0 0 30 30" viewBox="0 0 30 30" xmlns="http://www.w3.org/2000/svg"><g fill="none" fill-rule="evenodd"><path d="M13.795 26.103l-.016-.007 3.114-2.72-.005 4.03-.004-.002c.02.305-.03.618-.17.913-.444.93-1.56 1.32-2.493.872-.933-.45-1.328-1.563-.884-2.49.112-.237.27-.437.454-.598z" fill="#004381"/><path d="M6.5 21.985c-1.8 0-3.3-1.6-3.3-3.4 0-1.8 1.5-3.3 3.3-3.3h.2c.6-1.9 2.2-3.2 4.2-3.2.1 0 .2 0 .4.1.9-2.6 3.4-4.6 6.3-4.6 3.3 0 6.1 2.4 6.6 5.6.5-.1.9-.2 1.3-.2 2.5 0 4.5 2 4.5 4.5s-2 4.5-4.5 4.5h-19zm17.73-7c-.767.342-.96.367-1.16.267-.2-.1-.215-.267-.4-1.067-.452-2.934-2.27-4.8-4.97-4.8-2.6 0-4.8 2.1-4.8 4.6 0 .4-.1.5-.5.2-.4-.2-.9-.4-1.4-.4-1.4 0-2.6 1.1-2.7 2.8 0 .4.1.8 0 .9-.1.1-.3-.1-.8-.3-.517-.2-.8-.2-1-.2-.8 0-1.5.7-1.5 1.5s.7 1.5 1.5 1.5h19c1.4 0 2.6-1.2 2.6-2.6 0-1.4-1.1-2.6-2.6-2.6-.33 0-.882.027-1.27.2z" fill="#004381"/><path d="M12.993 8.32c-.952.748-1.714 1.72-2.22 2.836-1.913.07-3.568 1.13-4.467 2.69-.995-.036-1.995-.287-2.925-.805-1.01-.563-1.813-1.36-2.38-2.284.3.252.624.482.98.68 2.91 1.62 6.587.575 8.21-2.338 1.587-2.85.615-6.425-2.156-8.097.578.136 1.148.347 1.692.65 2.443 1.36 3.662 4.06 3.268 6.67z" fill="#006ED4"/></g></svg>
