<svg enable-background="new 0 0 30 30" viewBox="0 0 30 30" xmlns="http://www.w3.org/2000/svg"><g fill="none" fill-rule="evenodd"><path d="M6.5 25c-1.8 0-3.3-1.6-3.3-3.4 0-1.8 1.5-3.3 3.3-3.3h.2c.6-1.9 2.2-3.2 4.2-3.2.1 0 .2 0 .4.1.9-2.6 3.4-4.6 6.3-4.6 3.3 0 6.1 2.4 6.6 5.6.5-.1.9-.2 1.3-.2 2.5 0 4.5 2 4.5 4.5S28 25 25.5 25h-19zm17.73-7c-.767.343-.96.367-1.16.267-.2-.1-.215-.267-.4-1.067-.452-2.934-2.27-4.8-4.97-4.8-2.6 0-4.8 2.1-4.8 4.6 0 .4-.1.5-.5.2-.4-.2-.9-.4-1.4-.4-1.4 0-2.6 1.1-2.7 2.8 0 .4.1.8 0 .9-.1.1-.3-.1-.8-.3-.517-.2-.8-.2-1-.2-.8 0-1.5.7-1.5 1.5S5.7 23 6.5 23h19c1.4 0 2.6-1.2 2.6-2.6 0-1.4-1.1-2.6-2.6-2.6-.33 0-.882.027-1.27.2z" fill="#006ED4"/><path d="M12.994 11.32c-.952.748-1.715 1.72-2.22 2.836-1.913.068-3.568 1.13-4.468 2.69-.994-.037-1.994-.288-2.925-.805-1.01-.563-1.813-1.36-2.38-2.284.298.252.623.482.978.68 2.912 1.62 6.588.575 8.21-2.338 1.588-2.85.615-6.424-2.155-8.097.578.136 1.148.347 1.692.65 2.444 1.36 3.663 4.058 3.27 6.67z" fill="#004381"/></g></svg>
