<svg enable-background="new 0 0 30 30" viewBox="0 0 30 30" xmlns="http://www.w3.org/2000/svg"><g fill="none" fill-rule="evenodd"><path d="M6.5 25c-1.8 0-3.3-1.6-3.3-3.4 0-1.8 1.5-3.3 3.3-3.3h.2c.6-1.9 2.2-3.2 4.2-3.2.1 0 .2 0 .4.1.9-2.6 3.4-4.6 6.3-4.6 3.3 0 6.1 2.4 6.6 5.6.5-.1.9-.2 1.3-.2 2.5 0 4.5 2 4.5 4.5S28 25 25.5 25h-19zm17.73-7c-.767.343-.96.367-1.16.267-.2-.1-.215-.267-.4-1.067-.452-2.934-2.27-4.8-4.97-4.8-2.6 0-4.8 2.1-4.8 4.6 0 .4-.1.5-.5.2-.4-.2-.9-.4-1.4-.4-1.4 0-2.6 1.1-2.7 2.8 0 .4.1.8 0 .9-.1.1-.3-.1-.8-.3-.517-.2-.8-.2-1-.2-.8 0-1.5.7-1.5 1.5S5.7 23 6.5 23h19c1.4 0 2.6-1.2 2.6-2.6 0-1.4-1.1-2.6-2.6-2.6-.33 0-.882.027-1.27.2z" fill="#006ED4"/><path d="M16.453 9.405c-.212-.245-.435-.48-.683-.697l2.96-2.96.69.69-2.968 2.967zm-3.31 1.09c-1.995-1.15-4.546-.468-5.697 1.527-.632 1.092-.694 2.347-.31 3.452-.416.397-.77.857-1.043 1.37-.927-1.684-.982-3.793.048-5.58 1.57-2.714 5.04-3.643 7.755-2.076.398.23.752.504 1.07.807-.527.192-1.027.438-1.493.736-.108-.076-.208-.165-.327-.234zm-.804-3.45l1.03-3.852.942.253-1.027 3.834c-.312-.104-.63-.177-.947-.236zM7.664 3.288l.94-.253 1.08 4.015c-.32.063-.635.146-.944.25L7.667 3.29zm-4.95 3.15l.69-.69 2.927 2.928c-.244.21-.478.437-.694.685L2.715 6.44zm1.282 6.272L0 11.642l.253-.944 3.994 1.07c-.106.312-.186.627-.25.944zm.262 3.72L.252 17.503 0 16.563l4.006-1.075c.063.32.148.634.254.943z" fill="#FF6C00"/></g></svg>
