<svg enable-background="new 0 0 30 30" viewBox="0 0 30 30" xmlns="http://www.w3.org/2000/svg"><g fill="none" fill-rule="evenodd"><path d="M9.415 26.728L9.4 26.72l3.115-2.718-.005 4.028h-.002c.018.304-.03.617-.17.912-.445.93-1.562 1.32-2.494.872-.933-.447-1.328-1.56-.884-2.49.113-.235.27-.435.455-.596zm8.125-1.5l-.016-.007 3.116-2.717-.005 4.028h-.003c.02.305-.03.618-.17.913-.445.93-1.56 1.32-2.493.872-.935-.447-1.33-1.56-.886-2.49.113-.235.27-.435.455-.596z" fill="#004381"/><path d="M6.5 22c-1.8 0-3.3-1.6-3.3-3.4 0-1.8 1.5-3.3 3.3-3.3h.2c.6-1.9 2.2-3.2 4.2-3.2.1 0 .2 0 .4.1.9-2.6 3.4-4.6 6.3-4.6 3.3 0 6.1 2.4 6.6 5.6.5-.1.9-.2 1.3-.2 2.5 0 4.5 2 4.5 4.5S28 22 25.5 22h-19zm17.73-7c-.767.343-.96.367-1.16.267-.2-.1-.215-.267-.4-1.067-.452-2.934-2.27-4.8-4.97-4.8-2.6 0-4.8 2.1-4.8 4.6 0 .4-.1.5-.5.2-.4-.2-.9-.4-1.4-.4-1.4 0-2.6 1.1-2.7 2.8 0 .4.1.8 0 .9-.1.1-.3-.1-.8-.3-.517-.2-.8-.2-1-.2-.8 0-1.5.7-1.5 1.5S5.7 20 6.5 20h19c1.4 0 2.6-1.2 2.6-2.6 0-1.4-1.1-2.6-2.6-2.6-.33 0-.882.027-1.27.2z" fill="#004381"/><path d="M16.453 6.37c-.21-.246-.435-.482-.682-.7l2.96-2.958.69.69-2.966 2.967zm-3.31 1.088c-1.995-1.152-4.546-.468-5.697 1.526-.635 1.1-.695 2.36-.303 3.47-.416.394-.77.852-1.044 1.362-.935-1.684-.99-3.8.04-5.587 1.57-2.717 5.04-3.647 7.753-2.08.404.234.765.514 1.087.823-.526.19-1.027.436-1.492.732-.115-.082-.22-.175-.345-.248zm-.804-3.45L13.37.155l.943.253-1.027 3.833c-.312-.103-.63-.176-.947-.235zM7.664.25l.94-.25 1.078 4.014c-.32.06-.634.145-.943.25L7.666.252zM2.715 3.4l.69-.69 2.927 2.93c-.244.21-.478.436-.694.684l-2.923-2.92zm1.282 6.273L0 8.605l.253-.944 3.994 1.073c-.106.31-.186.626-.25.943zm.262 3.72L.252 14.467 0 13.525l4.006-1.074c.063.32.148.637.254.945z" fill="#FF6C00"/></g></svg>
