<svg enable-background="new 0 0 30 30" viewBox="0 0 30 30" xmlns="http://www.w3.org/2000/svg"><g fill="none" fill-rule="evenodd"><path d="M5.006 20.384l-.015-.006 3.09-2.696-.004 3.994h-.002c.018.302-.03.612-.17.905-.44.92-1.548 1.31-2.472.867-.924-.443-1.316-1.55-.875-2.47.112-.233.268-.432.45-.592zM20 20.407l-.016-.006 3.116-2.72-.005 4.03h-.002c.018.304-.03.62-.17.912-.445.93-1.562 1.32-2.494.874-.935-.447-1.33-1.56-.886-2.49.112-.235.27-.435.455-.597z" fill="#004381"/><path d="M17.248 17H23.6c2.5 0 4.5-2 4.5-4.5S26.1 8 23.6 8c-.4 0-.8.1-1.3.2-.5-3.2-3.3-5.6-6.6-5.6-2.9 0-5.4 2-6.3 4.6-.2-.1-.3-.1-.4-.1-2 0-3.6 1.3-4.2 3.2h-.2c-1.8 0-3.3 1.5-3.3 3.3 0 1.8 1.5 3.4 3.3 3.4h6.304l1.957-2H4.6c-.8 0-1.5-.7-1.5-1.5S3.8 12 4.6 12c.2 0 .483 0 1 .2.5.2.7.4.8.3.1-.1 0-.5 0-.9.1-1.7 1.3-2.8 2.7-2.8.5 0 1 .2 1.4.4.4.3.5.2.5-.2 0-2.5 2.2-4.6 4.8-4.6 2.7 0 4.518 1.866 4.97 4.8.185.8.2.967.4 1.067.2.1.393.076 1.16-.267.388-.173.94-.2 1.27-.2 1.5 0 2.6 1.2 2.6 2.6 0 1.4-1.2 2.6-2.6 2.6h-5.623l-.73 2z" fill="#004381"/><path d="M17.2 12.238l-7.2 8.41 4.07-.023-3.42 7.5 7.17-8.406-3.903-.385 3.282-7.098z" fill="#FF6C00"/></g></svg>
