<?xml version="1.0" encoding="utf-8"?>
<!-- Generator: Adobe Illustrator 15.0.0, SVG Export Plug-In . SVG Version: 6.00 Build 0)  -->
<!DOCTYPE svg PUBLIC "-//W3C//DTD SVG 1.1//EN" "http://www.w3.org/Graphics/SVG/1.1/DTD/svg11.dtd">
<svg version="1.1" id="Layer_1" xmlns="http://www.w3.org/2000/svg" xmlns:xlink="http://www.w3.org/1999/xlink" x="0px" y="0px"
	 width="48px" height="48px" viewBox="0 0 48 48" enable-background="new 0 0 48 48" xml:space="preserve">
<g>
	<path fill-rule="evenodd" clip-rule="evenodd" fill="#006ED4" d="M37.745,26.965c-0.075,0-0.146-0.012-0.222-0.014l0.01,0.018
		H7.243l0.009-0.008C4.346,26.924,2,24.563,2,21.647c0-2.938,2.381-5.32,5.319-5.32c0.101,0,0.194,0.024,0.293,0.029
		c0.871-2.975,3.589-5.161,6.845-5.161c0.217,0,0.422,0.045,0.634,0.064C16.535,7.039,20.527,4,25.238,4
		c5.319,0,9.724,3.875,10.572,8.953c0.619-0.174,1.26-0.298,1.935-0.298c3.952,0,7.155,3.204,7.155,7.156
		S41.697,26.965,37.745,26.965z M37.737,15.624c-2.092,0-3.81,1.54-4.118,3.545l-1.574-0.728c0.6-1.101,0.941-2.363,0.941-3.706
		c0-4.283-3.472-7.755-7.756-7.755c-4.283,0-7.755,3.472-7.755,7.755c0,0.265,0.014,0.526,0.039,0.784
		c-0.76-0.825-1.845-1.345-3.057-1.345c-2.311,0-4.183,1.873-4.183,4.183c0,0.781,0.228,1.502,0.6,2.127l-1.222,0.611
		c-0.233-1.085-1.195-1.9-2.351-1.9c-1.329,0-2.406,1.078-2.406,2.407s1.077,2.406,2.406,2.406c0.19,0,0.374-0.028,0.552-0.07h29.39
		c0.164,0.02,0.324,0.05,0.493,0.05c2.31,0,4.183-1.873,4.183-4.183C41.92,17.497,40.047,15.624,37.737,15.624z M13.683,36.643
		l0.932-0.932l1.99,1.99l0.729-2.719l1.273,0.342l-0.729,2.717l2.719-0.729l0.341,1.273l-2.718,0.729l1.989,1.99l-0.932,0.934
		l-1.99-1.99l-0.729,2.719l-1.273-0.342l0.729-2.719l-2.719,0.729l-0.341-1.273l2.718-0.729L13.683,36.643z M23.683,31.643
		l0.933-0.932l1.989,1.99l0.729-2.719l1.273,0.342l-0.729,2.717l2.719-0.729l0.341,1.273l-2.718,0.729l1.989,1.99l-0.932,0.934
		l-1.99-1.99l-0.729,2.719l-1.273-0.342l0.729-2.719l-2.719,0.729l-0.341-1.273l2.718-0.729L23.683,31.643z"/>
</g>
</svg>
