<?xml version="1.0" encoding="utf-8"?>
<!-- Generator: Adobe Illustrator 15.0.0, SVG Export Plug-In . SVG Version: 6.00 Build 0)  -->
<!DOCTYPE svg PUBLIC "-//W3C//DTD SVG 1.1//EN" "http://www.w3.org/Graphics/SVG/1.1/DTD/svg11.dtd">
<svg version="1.1" id="Layer_1" xmlns="http://www.w3.org/2000/svg" xmlns:xlink="http://www.w3.org/1999/xlink" x="0px" y="0px"
	 width="48px" height="48px" viewBox="0 0 48 48" enable-background="new 0 0 48 48" xml:space="preserve">
<g>
	<path fill-rule="evenodd" clip-rule="evenodd" fill="#006ED4" d="M37.844,26.967c-0.075,0-0.146-0.014-0.222-0.016l0.01,0.018
		H7.343l0.009-0.008c-2.907-0.037-5.254-2.398-5.254-5.313c0-2.938,2.383-5.32,5.32-5.32c0.091,0,0.175,0.022,0.264,0.027
		c0.868-2.979,3.614-5.158,6.874-5.158c0.218,0,0.433,0.014,0.646,0.032C16.654,7.024,20.638,4,25.337,4
		c5.311,0,9.709,3.862,10.569,8.928c0.617-0.174,1.265-0.273,1.938-0.273c3.952,0,7.156,3.204,7.156,7.155
		S41.796,26.967,37.844,26.967z M37.836,15.624c-2.092,0-3.81,1.54-4.118,3.545l-1.574-0.728c0.6-1.101,0.941-2.363,0.941-3.706
		c0-4.283-3.472-7.755-7.756-7.755c-4.283,0-7.755,3.472-7.755,7.755c0,0.265,0.014,0.526,0.039,0.784
		c-0.76-0.825-1.845-1.345-3.057-1.345c-2.311,0-4.183,1.873-4.183,4.183c0,0.781,0.228,1.502,0.6,2.128l-1.222,0.61
		c-0.232-1.085-1.195-1.9-2.351-1.9c-1.329,0-2.406,1.078-2.406,2.407s1.077,2.406,2.406,2.406c0.19,0,0.374-0.027,0.552-0.069
		h29.39c0.164,0.02,0.324,0.05,0.493,0.05c2.31,0,4.183-1.873,4.183-4.183S40.146,15.624,37.836,15.624z M19.781,32.643l0.933-0.932
		l1.989,1.99l0.729-2.719l1.273,0.342l-0.729,2.717l2.719-0.729l0.341,1.273l-2.718,0.729l1.989,1.99l-0.932,0.934l-1.99-1.99
		l-0.729,2.719l-1.273-0.342l0.729-2.719l-2.719,0.729l-0.341-1.273l2.718-0.729L19.781,32.643z"/>
</g>
</svg>
