<svg enable-background="new 0 0 30 30" viewBox="0 0 30 30" xmlns="http://www.w3.org/2000/svg"><path d="M23.154 12.203l4.912-1.316.305 1.14-4.913 1.316c-.074-.387-.176-.767-.302-1.14zm-2.47-3.722l3.576-3.573.834.833-3.584 3.584c-.256-.295-.527-.58-.825-.843zm.242 9.95c-1.893 3.28-6.087 4.403-9.367 2.51-3.28-1.893-4.405-6.087-2.51-9.367 1.892-3.28 6.085-4.404 9.365-2.51 3.28 1.894 4.405 6.087 2.51 9.367zm-3.416-7.79c-2.41-1.39-5.493-.564-6.884 1.846-1.392 2.41-.566 5.492 1.844 6.884 2.41 1.39 5.492.565 6.884-1.845 1.392-2.41.566-5.493-1.844-6.884zm-.84-4.145l1.304-4.865 1.14.304-1.306 4.87c-.375-.13-.756-.233-1.138-.31zm-5.78-4.56l1.14-.305 1.3 4.85c-.387.073-.768.175-1.14.3l-1.3-4.846zM4.91 5.74l.833-.834L9.28 8.444c-.294.256-.577.53-.84.83L4.91 5.74zm1.55 7.58l-4.83-1.294.304-1.14L6.76 12.18c-.13.376-.225.756-.3 1.14zm.317 4.492L1.934 19.11l-.305-1.14 4.84-1.296c.075.386.177.766.306 1.14v-.002zm2.52 3.724L5.74 25.093l-.833-.834 3.554-3.556c.26.294.537.572.838.83zm4.04 1.95L12.03 28.37l-1.14-.304 1.306-4.873c.376.128.758.22 1.142.292zm5.777 4.58l-1.14.305-1.313-4.903c.387-.077.768-.18 1.14-.31l1.315 4.91zm5.982-3.807l-.834.832-3.6-3.6c.294-.258.574-.534.834-.834l3.6 3.6zm-1.646-7.61l4.92 1.318-.304 1.14-4.917-1.32c.13-.374.225-.755.3-1.138z" fill="#FF6C00" fill-rule="evenodd"/></svg>
