<svg enable-background="new 0 0 30 30" viewBox="0 0 30 30" xmlns="http://www.w3.org/2000/svg"><path d="M20.442 10.523c-.737-.264-1.487-.407-2.23-.455 3.78 1.5 5.722 5.73 4.345 9.59-1.41 3.946-5.75 6.004-9.695 4.595-.48-.17-.93-.388-1.353-.64.89 1.03 2.05 1.85 3.423 2.34 4.26 1.523 8.95-.7 10.47-4.96 1.52-4.26-.7-8.95-4.962-10.47zM7.392 27.336l-1.165-.888-1.17.88.485-1.383-1.198-.843 1.464.035.43-1.4.42 1.404 1.464-.02-1.204.83.474 1.387zM6.014 15.452l-1.68-1.283-1.69 1.267.7-1.995-1.73-1.216 2.115.05.62-2.02.605 2.026 2.113-.032-1.74 1.202.684 2zM26.707 6.21l-1.2-.917-1.21.907.5-1.426-1.236-.87 1.514.036.444-1.445.433 1.45 1.513-.024-1.243.86.487 1.43z" fill="#006ED4" fill-rule="evenodd"/></svg>
