<?xml version="1.0" encoding="UTF-8"?>
<!-- Generator: Adobe Illustrator 15.0.0, SVG Export Plug-In . SVG Version: 6.00 Build 0)  -->
<!DOCTYPE svg PUBLIC "-//W3C//DTD SVG 1.1//EN" "http://www.w3.org/Graphics/SVG/1.1/DTD/svg11.dtd">
<svg version="1.1" id="Layer_1" xmlns="http://www.w3.org/2000/svg" xmlns:xlink="http://www.w3.org/1999/xlink" x="0px" y="0px" width="48px" height="48px" viewBox="0 0 48 48" enable-background="new 0 0 48 48" xml:space="preserve">
<g>
	<path fill-rule="evenodd" clip-rule="evenodd" fill="#FF6C00" d="M37.046,19.525l7.859-2.106l0.488,1.822l-7.863,2.107   C37.411,20.73,37.248,20.122,37.046,19.525z M33.096,13.57l5.72-5.721l1.334,1.334l-5.734,5.735   C34.006,14.446,33.573,13.99,33.096,13.57z M33.482,29.487c-3.029,5.247-9.739,7.045-14.987,4.016   c-5.248-3.03-7.046-9.74-4.016-14.988c3.029-5.248,9.739-7.046,14.987-4.016S36.513,24.239,33.482,29.487z M28.016,17.025   c-3.856-2.227-8.788-0.905-11.015,2.951s-0.905,8.788,2.951,11.015s8.788,0.905,11.015-2.951   C33.193,24.183,31.872,19.251,28.016,17.025z M26.672,10.39l2.086-7.784l1.822,0.488l-2.088,7.792   C27.892,10.677,27.284,10.514,26.672,10.39z M17.426,3.095l1.822-0.488l2.079,7.759c-0.619,0.119-1.228,0.282-1.824,0.483   L17.426,3.095z M7.855,9.184L9.189,7.85l5.66,5.661c-0.472,0.409-0.924,0.846-1.343,1.325L7.855,9.184z M10.337,21.312l-7.73-2.071   l0.488-1.822l7.722,2.069C10.61,20.089,10.456,20.698,10.337,21.312z M10.843,28.5l-7.748,2.075l-0.488-1.822l7.743-2.074   C10.474,27.296,10.637,27.904,10.843,28.5z M14.876,34.458l-5.691,5.691l-1.334-1.335l5.687-5.686   C13.949,33.598,14.394,34.043,14.876,34.458z M21.341,37.576l-2.095,7.817l-1.822-0.488l2.089-7.797   C20.115,37.313,20.727,37.46,21.341,37.576z M30.582,44.905l-1.823,0.488l-2.102-7.847c0.617-0.124,1.226-0.288,1.82-0.494   L30.582,44.905z M40.154,38.815l-1.334,1.334l-5.761-5.761c0.471-0.412,0.918-0.854,1.335-1.334L40.154,38.815z M37.522,26.643   l7.871,2.109l-0.488,1.822l-7.866-2.108C37.246,27.865,37.401,27.256,37.522,26.643z"/>
</g>
</svg>